<?xml version="1.0" standalone="no"?>
<!DOCTYPE svg PUBLIC "-//W3C//DTD SVG 20010904//EN"
 "http://www.w3.org/TR/2001/REC-SVG-20010904/DTD/svg10.dtd">
<svg version="1.0" xmlns="http://www.w3.org/2000/svg"
 width="6657.000000pt" height="6657.000000pt" viewBox="0 0 6657.000000 6657.000000"
 preserveAspectRatio="xMidYMid meet">

<g transform="translate(0.000000,6657.000000) scale(0.100000,-0.100000)"
fill="#000000" stroke="none">
<path d="M12173 39434 c4 -4 -1 -16 -10 -27 -10 -10 -17 -21 -15 -23 7 -12 0
-24 -10 -18 -6 4 -8 3 -5 -3 4 -6 0 -18 -7 -29 -8 -10 -11 -25 -8 -33 3 -9 1
-12 -6 -7 -15 9 -26 -14 -13 -27 9 -9 11 -8 6 4 -5 12 -1 16 17 15 19 -1 22 4
23 33 0 24 9 44 28 63 20 20 23 26 10 22 -17 -5 -17 -5 0 9 17 14 17 15 0 21
-10 4 -14 4 -10 0z"/>
<path d="M12145 39270 c-3 -5 -1 -10 4 -10 6 0 11 5 11 10 0 6 -2 10 -4 10 -3
0 -8 -4 -11 -10z"/>
<path d="M12083 39224 c-32 -24 -38 -34 -27 -38 22 -8 24 -8 19 7 -8 19 33 41
51 26 11 -9 14 -9 14 0 0 7 5 9 10 6 6 -3 10 -2 10 2 0 5 -8 13 -17 19 -15 8
-26 4 -60 -22z"/>
<path d="M12030 39165 c0 -14 3 -15 14 -5 13 10 14 7 10 -16 -3 -15 -8 -32
-12 -38 -13 -21 -10 -36 8 -46 10 -6 21 -7 23 -3 5 8 2 53 -3 63 -2 3 -3 16
-4 30 -1 28 -36 43 -36 15z"/>
<path d="M12002 39104 c-7 -8 -10 -14 -7 -14 4 0 -1 -7 -9 -16 -17 -16 -22
-39 -8 -30 5 3 9 -1 9 -8 0 -8 -6 -12 -12 -10 -18 7 -36 -19 -25 -36 9 -13 10
-13 11 0 1 8 1 19 0 23 -1 5 3 6 9 2 7 -4 7 -13 -1 -26 -9 -17 -13 -18 -27 -7
-12 10 -14 10 -8 1 4 -7 3 -13 -1 -13 -5 0 -16 -15 -24 -34 -14 -31 -14 -34 0
-28 14 5 14 3 2 -11 -9 -12 -10 -17 -2 -17 7 0 9 -5 5 -12 -5 -7 -11 -5 -21 7
-11 16 -13 16 -13 3 0 -8 -7 -21 -15 -28 -9 -7 -13 -20 -10 -29 3 -8 3 -12 -1
-8 -4 4 -22 -21 -41 -55 -83 -157 -112 -216 -108 -222 3 -3 2 -4 -1 -1 -5 3
-4048 -7611 -4869 -9170 l-68 -130 434 430 c1488 1474 3080 2912 4397 3969
122 98 222 182 222 187 0 5 3 8 8 7 13 -5 71 45 65 56 -3 6 -3 8 2 4 4 -4 14
0 22 10 9 11 12 11 7 2 -4 -9 2 -6 15 6 15 13 19 26 15 38 -6 17 -8 16 -21 -5
-11 -18 -13 -19 -7 -4 3 11 7 26 7 33 0 9 4 9 11 2 5 -5 17 -10 25 -10 13 0
13 2 3 9 -11 7 -10 9 3 15 9 3 14 10 11 14 -3 5 1 9 9 9 11 0 12 -4 4 -14 -9
-9 -8 -13 0 -13 18 0 2 -20 -22 -29 -11 -4 -16 -10 -11 -13 5 -3 25 8 44 24
19 17 29 28 23 24 -9 -5 -11 -2 -7 8 3 8 13 13 22 11 16 -3 17 46 14 678 -1
403 -6 683 -12 687 -5 3 -10 624 -12 1563 -2 856 -7 1557 -11 1557 -4 0 -7
135 -5 300 2 195 0 300 -7 300 -5 0 -4 4 4 9 7 5 9 11 5 14 -5 3 -15 -1 -22
-9z m13 -44 c3 -5 1 -10 -4 -10 -6 0 -11 5 -11 10 0 6 2 10 4 10 3 0 8 -4 11
-10z m-128 -215 c0 -8 -4 -12 -9 -9 -5 3 -6 10 -3 15 9 13 12 11 12 -6z"/>
<path d="M12164 38810 c0 -91 2 -128 3 -82 2 45 2 119 0 165 -1 45 -3 8 -3
-83z"/>
<path d="M12164 37450 c0 -135 2 -190 3 -122 2 67 2 177 0 245 -1 67 -3 12 -3
-123z"/>
<path d="M12185 36650 c0 -267 1 -376 2 -242 2 133 2 351 0 485 -1 133 -2 24
-2 -243z"/>
<path d="M12185 35290 c0 -267 1 -376 2 -242 2 133 2 351 0 485 -1 133 -2 24
-2 -243z"/>
<path d="M21165 34964 c-282 -122 -822 -386 -1180 -579 -1752 -943 -3495
-2188 -5060 -3616 -202 -184 -541 -504 -551 -520 -3 -6 61 34 143 89 945 632
2168 1148 3315 1398 314 68 902 157 939 142 8 -4 700 -1282 1539 -2842 l1524
-2836 2084 0 c1663 0 2083 3 2079 13 -27 66 -4749 8773 -4759 8774 -7 1 -40
-9 -73 -23z"/>
<path d="M12190 34160 c0 -5 4 -10 10 -10 5 0 7 -7 4 -15 -4 -8 -10 -12 -15
-9 -5 3 -9 0 -9 -5 0 -16 20 -13 26 4 4 8 10 12 16 9 5 -3 4 3 -4 15 -14 22
-28 28 -28 11z"/>
<path d="M12090 34078 c0 -6 7 -8 14 -5 10 4 13 1 9 -8 -3 -8 -9 -13 -13 -10
-4 3 -11 -2 -14 -11 -5 -14 -1 -13 26 3 17 10 33 24 34 31 1 7 0 8 -3 2 -2 -5
-10 -7 -16 -3 -19 12 -37 12 -37 1z"/>
<path d="M26700 30030 l0 -3830 3005 0 3004 0 341 687 c187 377 340 688 340
690 0 1 -1119 4 -2487 5 l-2488 3 -3 3138 -2 3137 -855 0 -855 0 0 -3830z"/>
<path d="M35645 30208 c-956 -2004 -1778 -3725 -1826 -3826 l-88 -182 952 2
951 3 92 220 c51 121 106 255 124 298 l31 77 1138 0 c626 0 1313 -3 1527 -7
l389 -6 130 -291 131 -291 932 -3 932 -2 -18 37 c-11 21 -835 1742 -1832 3826
-998 2083 -1816 3787 -1820 3787 -3 0 -789 -1639 -1745 -3642z m2134 -1066
c204 -425 371 -777 371 -782 0 -6 -271 -10 -746 -10 -706 0 -746 1 -741 18 13
47 731 1562 737 1555 4 -4 174 -356 379 -781z"/>
<path d="M12340 33266 c0 -2 8 -10 18 -17 15 -13 16 -12 3 4 -13 16 -21 21
-21 13z"/>
<path d="M12226 33175 c-3 -8 0 -17 6 -21 6 -4 8 -3 4 4 -3 5 -1 12 6 14 8 3
9 6 1 11 -6 4 -13 0 -17 -8z"/>
<path d="M12196 33151 c-4 -5 -2 -12 3 -15 5 -4 12 -2 15 3 4 5 2 12 -3 15 -5
4 -12 2 -15 -3z"/>
<path d="M41570 29670 l0 -3470 860 0 860 0 0 1075 0 1075 1395 0 1395 0 0
-1075 0 -1075 855 0 855 0 0 3470 0 3470 -855 0 -855 0 -2 -1597 -3 -1598
-1392 -3 -1393 -2 0 1600 0 1600 -860 0 -860 0 0 -3470z"/>
<path d="M48880 29670 l0 -3470 2875 0 2875 0 0 810 0 810 -2015 0 -2015 0 2
518 3 517 1713 3 1712 2 0 810 0 810 -1715 0 -1715 0 0 520 0 520 2015 0 2015
0 0 810 0 810 -2875 0 -2875 0 0 -3470z"/>
<path d="M55680 29670 l0 -3470 2875 0 2875 0 0 810 0 810 -2015 0 -2015 0 0
520 0 520 1710 0 1710 0 0 810 0 810 -1710 0 -1710 0 0 520 0 520 2015 0 2015
0 0 810 0 810 -2875 0 -2875 0 0 -3470z"/>
<path d="M12117 33102 c-10 -10 -14 -22 -10 -27 5 -4 0 -5 -10 -2 -11 4 -16 3
-12 -4 4 -6 13 -8 21 -5 8 3 14 1 14 -3 0 -5 7 -8 15 -7 9 1 14 6 13 12 -1 5
-8 8 -15 6 -15 -3 -13 19 2 30 5 4 7 9 4 13 -3 3 -13 -3 -22 -13z"/>
<path d="M12051 33051 c-10 -6 -10 -13 -2 -28 5 -11 8 -23 5 -25 -2 -3 2 -10
9 -16 11 -9 14 -8 14 6 0 9 -5 21 -11 25 -8 6 -7 10 2 14 13 5 17 33 5 33 -5
0 -14 -4 -22 -9z"/>
<path d="M12020 33013 c0 -13 -3 -14 -8 -5 -6 9 -14 6 -30 -13 -12 -14 -27
-25 -33 -25 -5 0 -7 -5 -3 -12 4 -7 3 -8 -4 -4 -26 16 -1071 -827 -1691 -1362
-1790 -1547 -3447 -3281 -4850 -5077 -103 -132 -200 -257 -215 -277 l-28 -38
2040 0 2041 0 109 143 c301 393 735 904 1196 1407 307 335 475 510 942 980
398 401 461 468 458 490 -4 24 -4 24 10 5 9 -11 16 -15 16 -8 0 6 13 20 29 29
17 10 28 21 26 25 -3 4 4 9 15 12 11 3 20 11 20 17 0 8 -4 9 -12 3 -37 -27
-61 14 -28 47 20 20 57 20 52 -1 -3 -10 0 -10 13 1 11 9 12 16 5 25 -5 7 -9
24 -8 39 2 20 6 25 20 20 10 -3 18 -1 18 5 0 6 -3 10 -7 10 -33 -5 -33 -6 -33
679 0 1082 -19 2843 -30 2857 -5 6 -8 14 -6 16 2 2 -2 10 -10 17 -12 11 -14
10 -14 -5z m-28 -36 c-7 -8 -10 -16 -7 -19 3 -2 -2 -5 -10 -5 -19 0 -19 3 3
25 19 21 31 20 14 -1z m8 -67 c0 -4 -7 -11 -16 -14 -13 -5 -14 -4 -6 7 9 10 8
17 -1 27 -10 12 -9 12 6 1 9 -7 17 -17 17 -21z m-50 3 c0 -3 -7 -3 -15 0 -8 4
-17 2 -20 -3 -4 -6 -1 -10 6 -10 7 0 10 -3 6 -6 -3 -3 -11 -3 -17 1 -16 10 7
35 26 28 8 -3 14 -7 14 -10z m46 -3644 c0 -13 -4 -15 -17 -8 -27 14 -33 11
-18 -8 13 -17 12 -17 -4 -4 -17 13 -17 16 -3 26 23 17 42 14 42 -6z"/>
<path d="M12251 29596 c-8 -10 -9 -16 -1 -21 5 -3 10 -5 11 -3 4 18 7 38 4 38
-1 0 -8 -6 -14 -14z"/>
<path d="M12160 29519 c0 -5 5 -7 10 -4 6 3 10 8 10 11 0 2 -4 4 -10 4 -5 0
-10 -5 -10 -11z"/>
<path d="M12203 29510 c-3 -11 -11 -20 -19 -20 -7 0 -16 -4 -19 -10 -4 -6 2
-7 16 -2 20 8 48 52 33 52 -3 0 -8 -9 -11 -20z"/>
<path d="M12226 29514 c-3 -8 -2 -12 4 -9 9 6 14 -8 11 -27 -2 -13 6 -9 20 9
10 11 10 14 2 9 -12 -6 -18 5 -14 27 2 14 -17 7 -23 -9z"/>
<path d="M12210 29475 c-8 -9 -8 -15 -2 -15 12 0 26 19 19 26 -2 2 -10 -2 -17
-11z"/>
<path d="M12172 29458 c-7 -7 -17 -13 -22 -13 -6 0 -10 -4 -11 -10 0 -5 -7
-17 -15 -26 -13 -14 -13 -18 0 -28 10 -8 16 -9 21 -1 3 5 -1 10 -11 10 -14 0
-14 3 -4 15 9 11 16 12 20 5 4 -6 16 0 31 17 13 14 18 23 10 18 -11 -6 -13 -4
-8 8 8 20 5 21 -11 5z"/>
<path d="M12028 29342 c-30 -35 -9 -51 28 -22 11 9 15 10 10 3 -4 -7 -2 -13 3
-13 14 0 14 17 1 25 -6 4 -8 10 -6 14 9 14 -24 8 -36 -7z m22 4 c0 -2 -8 -10
-17 -17 -16 -13 -17 -12 -4 4 13 16 21 21 21 13z"/>
<path d="M12099 29343 c-13 -16 -12 -17 4 -4 9 7 17 15 17 17 0 8 -8 3 -21
-13z"/>
<path d="M38650 24139 c-154 -30 -267 -150 -290 -306 -13 -91 -13 -781 0 -862
19 -114 79 -201 193 -276 71 -47 146 -75 221 -81 52 -5 74 -1 151 27 117 42
481 228 818 417 l267 150 0 -774 0 -774 -155 0 c-153 0 -156 0 -216 -30 -33
-17 -124 -74 -202 -127 -78 -54 -171 -114 -207 -135 -61 -36 -69 -38 -150 -38
-187 0 -217 37 -222 277 l-3 103 -222 0 -223 0 0 -142 c1 -282 36 -380 161
-444 74 -37 152 -44 514 -44 313 0 343 2 382 20 49 22 115 66 279 186 65 47
141 97 169 111 49 26 52 26 152 15 128 -14 270 -60 363 -118 l70 -43 0 1330 0
1329 407 0 c224 0 403 -4 397 -8 -5 -5 -48 -38 -95 -75 -121 -93 -202 -184
-252 -286 l-42 -84 0 -776 c0 -623 3 -787 14 -831 33 -135 121 -259 220 -313
83 -46 161 -57 409 -57 l222 0 0 119 0 120 -42 5 c-24 3 -72 8 -107 11 -122
12 -175 49 -208 148 -16 47 -18 121 -21 850 -3 893 -4 874 66 977 50 74 145
144 229 170 37 11 111 23 170 27 l103 6 0 -139 c0 -201 13 -295 53 -374 72
-143 206 -185 495 -152 39 4 72 5 72 1 0 -4 24 -10 54 -13 43 -6 60 -14 87
-42 l34 -35 0 -145 c0 -144 0 -145 -27 -179 -16 -18 -42 -36 -58 -40 -17 -4
-30 -10 -30 -13 0 -4 -100 -8 -223 -10 -266 -3 -307 -11 -372 -77 -72 -71 -77
-102 -83 -442 -5 -327 4 -424 44 -514 50 -112 169 -193 330 -225 60 -12 147
-17 364 -18 l285 -1 5 105 c3 64 1 108 -5 112 -5 4 3 8 19 8 16 0 26 3 22 8
-4 4 -96 9 -204 12 -222 6 -251 14 -311 87 -54 65 -66 124 -63 323 2 225 11
269 62 313 49 42 93 56 195 64 63 5 83 10 97 27 10 12 18 17 17 11 -3 -23 2
-31 21 -32 11 -1 20 1 20 5 0 4 22 5 49 4 44 -3 49 -2 46 15 -2 10 -4 217 -4
461 l-1 442 -117 0 c-210 1 -308 25 -344 84 -17 27 -19 52 -19 199 l0 167 238
0 237 0 0 92 c0 68 -4 96 -14 104 -12 9 -11 12 3 17 10 4 14 11 11 17 -4 7
-500 10 -1476 10 l-1469 0 0 -125 0 -125 -84 72 c-47 40 -115 90 -153 110
-124 67 -135 68 -633 67 -245 -1 -465 -5 -490 -10z m4213 -216 c-13 -2 -35 -2
-50 0 -16 2 -5 4 22 4 28 0 40 -2 28 -4z m-3253 -36 c61 -22 159 -96 269 -203
77 -74 103 -106 95 -114 -18 -18 -494 -273 -747 -400 -156 -79 -250 -120 -271
-120 -39 0 -71 21 -94 63 -15 29 -17 67 -17 354 0 309 1 323 21 349 28 39 66
65 105 74 59 14 599 11 639 -3z m3188 -702 c-3 -3 -9 2 -12 12 -6 14 -5 15 5
6 7 -7 10 -15 7 -18z m0 -286 c-3 -8 -7 -3 -11 10 -4 17 -3 21 5 13 5 -5 8
-16 6 -23z m-2 -53 c0 -14 -3 -23 -7 -20 -6 3 -6 22 0 42 3 10 7 -2 7 -22z"/>
<path d="M43134 24029 c6 -75 4 -98 -6 -102 -8 -4 -7 -6 4 -6 16 -1 18 8 14
95 -2 52 -7 99 -11 102 -4 4 -5 -36 -1 -89z"/>
<path d="M43060 23419 c-12 -21 -11 -22 2 -12 11 10 17 10 26 1 9 -9 15 -9 23
-1 8 8 7 13 -2 18 -8 5 -10 4 -5 -3 4 -7 3 -12 -3 -12 -5 0 -14 7 -19 17 -8
14 -11 13 -22 -8z"/>
<path d="M43137 23396 c-21 -16 -22 -23 -3 -23 8 0 15 3 14 6 -2 19 4 24 12
11 6 -9 10 -10 10 -3 0 19 -14 22 -33 9z"/>
<path d="M5160 22520 l0 -300 558 6 c306 4 1800 18 3319 33 2734 26 2762 26
2778 46 15 20 15 20 9 0 -6 -19 -6 -19 7 -2 13 16 29 18 137 15 67 -2 122 1
122 5 0 4 -59 7 -131 5 l-130 -3 3 213 3 212 -37 0 c-20 0 -40 -4 -43 -10 -9
-14 -43 -12 -47 3 -4 9 -583 18 -2759 38 -1515 15 -2987 29 -3271 32 l-518 6
0 -299z m6620 -205 c5 3 11 1 14 -4 4 -5 -2 -8 -11 -7 -9 2 -18 8 -19 15 -1 6
0 7 3 1 2 -5 9 -8 13 -5z"/>
<path d="M43181 22638 c-19 -18 -23 -19 -18 -5 4 9 2 17 -4 17 -6 0 -9 -8 -6
-19 3 -14 0 -17 -13 -14 -10 3 -17 -1 -17 -12 0 -10 4 -12 10 -6 7 7 15 7 24
-1 11 -9 18 -7 31 7 16 18 16 18 0 6 -10 -8 -18 -9 -18 -3 0 14 25 33 33 25 4
-3 7 1 7 10 0 22 -1 21 -29 -5z"/>
<path d="M42993 22559 c-21 -7 -5 -17 22 -13 35 5 54 10 60 15 7 7 -61 6 -82
-2z"/>
<path d="M42904 21325 c-8 -11 -12 -13 -9 -5 4 8 -5 2 -18 -14 -16 -18 -23
-36 -19 -49 3 -12 1 -18 -5 -14 -7 5 -11 -19 -11 -68 0 -41 4 -77 8 -80 5 -3
6 -13 3 -22 -4 -10 -2 -14 4 -10 6 4 13 -3 16 -14 4 -14 10 -18 19 -13 20 13
57 12 62 -1 4 -13 -22 -14 -42 -1 -6 4 -12 3 -12 -3 0 -15 19 -23 60 -28 27
-3 38 -1 37 9 0 7 1 72 1 144 2 125 3 131 25 142 18 9 19 11 4 11 -10 1 -25 7
-33 15 -12 13 -12 15 4 19 9 3 -5 4 -31 3 -35 -1 -52 -6 -63 -21z m40 3 c-3
-4 0 -8 6 -8 7 0 6 -5 -2 -14 -9 -9 -17 -11 -25 -4 -15 12 -7 35 12 35 8 0 12
-4 9 -9z m-66 -94 c0 -18 -3 -22 -9 -13 -7 12 -9 12 -9 0 0 -8 -3 -12 -6 -9
-4 5 16 48 22 48 1 0 2 -12 2 -26z m-2 -116 c4 -7 3 -8 -4 -4 -7 4 -12 2 -12
-5 0 -7 -3 -10 -6 -6 -6 5 3 27 11 27 2 0 7 -5 11 -12z"/>
<path d="M43078 21343 c23 -2 61 -2 85 0 23 2 4 4 -43 4 -47 0 -66 -2 -42 -4z"/>
</g>
</svg>
